<svg viewBox="0 0 265 111" fill="none" xmlns="http://www.w3.org/2000/svg">
<g filter="url(#filter0_d)">
<rect x="4" width="257" height="103" rx="10" fill="#D83232" fill-opacity="0.63" shape-rendering="crispEdges"/>
</g>
<g filter="url(#filter1_d)">
<path d="M37.204 43.576C34.852 43.576 32.872 42.988 31.264 41.812C29.68 40.636 28.54 39.112 27.844 37.24C27.148 35.368 26.8 33.208 26.8 30.76C26.8 28.312 27.148 26.152 27.844 24.28C28.54 22.408 29.68 20.884 31.264 19.708C32.872 18.532 34.972 17.944 37.564 17.944C40.18 17.944 42.496 18.496 44.512 19.6L43.504 22.048C41.584 21.064 39.412 20.572 36.988 20.572C34.588 20.572 32.764 21.52 31.516 23.416C30.292 25.288 29.68 27.748 29.68 30.796C29.68 33.82 30.292 36.268 31.516 38.14C32.74 40.012 34.54 40.948 36.916 40.948C39.316 40.948 41.272 40.528 42.784 39.688V32.056H37.276V29.464H45.52V41.092C42.88 42.748 40.108 43.576 37.204 43.576ZM51.9831 40.876C50.6631 39.1 50.0031 36.808 50.0031 34C50.0031 31.192 50.6631 28.912 51.9831 27.16C53.3031 25.384 55.2711 24.496 57.8871 24.496C60.5271 24.496 62.5191 25.384 63.8631 27.16C65.2071 28.912 65.8791 31.192 65.8791 34C65.8791 36.808 65.2071 39.1 63.8631 40.876C62.5191 42.628 60.5271 43.504 57.8871 43.504C55.2711 43.504 53.3031 42.628 51.9831 40.876ZM54.0351 28.924C53.1711 30.22 52.7391 31.912 52.7391 34C52.7391 36.088 53.1711 37.792 54.0351 39.112C54.8991 40.408 56.1951 41.056 57.9231 41.056C59.6511 41.056 60.9471 40.408 61.8111 39.112C62.6991 37.792 63.1431 36.088 63.1431 34C63.1431 31.912 62.6991 30.22 61.8111 28.924C60.9471 27.604 59.6511 26.944 57.9231 26.944C56.1951 26.944 54.8991 27.604 54.0351 28.924ZM79.5597 24.496C83.4957 24.496 85.4637 27.016 85.4637 32.056V43H82.7277V32.056C82.7277 28.648 81.5157 26.944 79.0917 26.944C77.6997 26.944 76.4277 27.664 75.2757 29.104C74.1477 30.544 73.5477 32.524 73.4757 35.044V43H70.7397V28.6L70.3797 25L72.7557 24.82L73.4397 28.528C74.1837 27.232 75.1077 26.236 76.2117 25.54C77.3157 24.844 78.4317 24.496 79.5597 24.496ZM105.24 41.776C105.24 44.656 104.4 47.008 102.72 48.832C101.064 50.68 98.9878 51.604 96.4918 51.604C94.0198 51.604 91.7878 50.908 89.7958 49.516L91.1638 47.392C91.7398 47.872 92.5078 48.268 93.4678 48.58C94.4278 48.892 95.3998 49.048 96.3838 49.048C98.1598 49.048 99.6238 48.364 100.776 46.996C101.928 45.628 102.504 43.876 102.504 41.74V40.048C101.16 42.352 99.2758 43.504 96.8518 43.504C94.7878 43.504 93.0958 42.724 91.7758 41.164C90.4558 39.604 89.7958 37.36 89.7958 34.432C89.7958 31.48 90.6238 29.092 92.2798 27.268C93.9598 25.42 96.0358 24.496 98.5078 24.496C101.004 24.496 103.248 25.192 105.24 26.584V41.776ZM92.5318 34.36C92.5318 36.52 92.9878 38.176 93.8998 39.328C94.8118 40.48 95.9758 41.056 97.3918 41.056C98.8318 41.056 100.044 40.336 101.028 38.896C102.012 37.456 102.504 35.404 102.504 32.74V27.844C101.304 27.244 100.02 26.944 98.6518 26.944C96.8758 26.944 95.4118 27.64 94.2598 29.032C93.1078 30.4 92.5318 32.176 92.5318 34.36ZM125.781 43H108.825V40.552L121.569 21.112H109.725V18.52H125.601V19.996L112.245 40.408H125.781V43ZM130.1 40.876C128.78 39.1 128.12 36.808 128.12 34C128.12 31.192 128.78 28.912 130.1 27.16C131.42 25.384 133.388 24.496 136.004 24.496C138.644 24.496 140.636 25.384 141.98 27.16C143.324 28.912 143.996 31.192 143.996 34C143.996 36.808 143.324 39.1 141.98 40.876C140.636 42.628 138.644 43.504 136.004 43.504C133.388 43.504 131.42 42.628 130.1 40.876ZM132.152 28.924C131.288 30.22 130.856 31.912 130.856 34C130.856 36.088 131.288 37.792 132.152 39.112C133.016 40.408 134.312 41.056 136.04 41.056C137.768 41.056 139.064 40.408 139.928 39.112C140.816 37.792 141.26 36.088 141.26 34C141.26 31.912 140.816 30.22 139.928 28.924C139.064 27.604 137.768 26.944 136.04 26.944C134.312 26.944 133.016 27.604 132.152 28.924ZM157.677 24.496C161.613 24.496 163.581 27.016 163.581 32.056V43H160.845V32.056C160.845 28.648 159.633 26.944 157.209 26.944C155.817 26.944 154.545 27.664 153.393 29.104C152.265 30.544 151.665 32.524 151.593 35.044V43H148.857V28.6L148.497 25L150.873 24.82L151.557 28.528C152.301 27.232 153.225 26.236 154.329 25.54C155.433 24.844 156.549 24.496 157.677 24.496ZM175.365 43.504C173.205 43.504 171.417 42.748 170.001 41.236C168.609 39.724 167.913 37.504 167.913 34.576C167.913 31.648 168.741 29.236 170.397 27.34C172.053 25.444 174.201 24.496 176.841 24.496C178.521 24.496 179.877 25.012 180.909 26.044C181.941 27.052 182.457 28.324 182.457 29.86C182.457 31.372 181.665 32.764 180.081 34.036C178.521 35.308 176.241 35.944 173.241 35.944C172.449 35.944 171.609 35.908 170.721 35.836C170.889 37.54 171.405 38.836 172.269 39.724C173.157 40.612 174.225 41.056 175.473 41.056C177.561 41.056 179.301 40.408 180.693 39.112L181.989 40.876C180.165 42.628 177.957 43.504 175.365 43.504ZM176.733 26.944C175.077 26.944 173.697 27.532 172.593 28.708C171.513 29.884 170.877 31.444 170.685 33.388C171.477 33.508 172.353 33.568 173.313 33.568C175.377 33.568 176.961 33.184 178.065 32.416C179.169 31.648 179.721 30.76 179.721 29.752C179.721 29.008 179.445 28.36 178.893 27.808C178.365 27.232 177.645 26.944 176.733 26.944ZM109.24 85V60.52H117.988C121.444 60.52 124.036 61.66 125.764 63.94C127.492 66.22 128.356 69.16 128.356 72.76C128.356 76.36 127.492 79.3 125.764 81.58C124.036 83.86 121.444 85 117.988 85H109.24ZM117.988 63.112H112.12V82.408H117.988C120.484 82.408 122.356 81.52 123.604 79.744C124.852 77.944 125.476 75.616 125.476 72.76C125.476 69.904 124.852 67.588 123.604 65.812C122.356 64.012 120.484 63.112 117.988 63.112ZM138.521 85.504C136.361 85.504 134.573 84.748 133.157 83.236C131.765 81.724 131.069 79.504 131.069 76.576C131.069 73.648 131.897 71.236 133.553 69.34C135.209 67.444 137.357 66.496 139.997 66.496C141.677 66.496 143.033 67.012 144.065 68.044C145.097 69.052 145.613 70.324 145.613 71.86C145.613 73.372 144.821 74.764 143.237 76.036C141.677 77.308 139.397 77.944 136.397 77.944C135.605 77.944 134.765 77.908 133.877 77.836C134.045 79.54 134.561 80.836 135.425 81.724C136.313 82.612 137.381 83.056 138.629 83.056C140.717 83.056 142.457 82.408 143.849 81.112L145.145 82.876C143.321 84.628 141.113 85.504 138.521 85.504ZM139.889 68.944C138.233 68.944 136.853 69.532 135.749 70.708C134.669 71.884 134.033 73.444 133.841 75.388C134.633 75.508 135.509 75.568 136.469 75.568C138.533 75.568 140.117 75.184 141.221 74.416C142.325 73.648 142.877 72.76 142.877 71.752C142.877 71.008 142.601 70.36 142.049 69.808C141.521 69.232 140.801 68.944 139.889 68.944ZM150.019 67L155.419 81.868L160.783 67H163.699L157.003 85H153.763L147.067 67H150.019ZM176.107 85V60.52H185.107C186.739 60.52 188.131 61.096 189.283 62.248C190.435 63.4 191.011 64.792 191.011 66.424C191.011 67.552 190.723 68.584 190.147 69.52C189.571 70.432 188.803 71.14 187.843 71.644C189.139 72.148 190.171 72.928 190.939 73.984C191.707 75.04 192.091 76.276 192.091 77.692C192.091 79.732 191.383 81.46 189.967 82.876C188.551 84.292 186.823 85 184.783 85H176.107ZM184.711 72.976H178.987V82.408H184.711C185.983 82.408 187.075 81.94 187.987 81.004C188.899 80.068 189.355 78.964 189.355 77.692C189.355 76.396 188.899 75.292 187.987 74.38C187.075 73.444 185.983 72.976 184.711 72.976ZM184.567 63.112H178.987V70.384H184.567C185.599 70.384 186.475 70.036 187.195 69.34C187.915 68.644 188.275 67.78 188.275 66.748C188.275 65.716 187.915 64.852 187.195 64.156C186.475 63.46 185.599 63.112 184.567 63.112ZM195.888 59.8H198.624V81.04C198.624 82.36 199.164 83.02 200.244 83.02C200.94 83.02 201.624 82.78 202.296 82.3L203.376 84.244C202.056 85.084 200.808 85.504 199.632 85.504C198.456 85.504 197.532 85.18 196.86 84.532C196.212 83.884 195.888 82.72 195.888 81.04V59.8ZM206.425 82.876C205.105 81.1 204.445 78.808 204.445 76C204.445 73.192 205.105 70.912 206.425 69.16C207.745 67.384 209.713 66.496 212.329 66.496C214.969 66.496 216.961 67.384 218.305 69.16C219.649 70.912 220.321 73.192 220.321 76C220.321 78.808 219.649 81.1 218.305 82.876C216.961 84.628 214.969 85.504 212.329 85.504C209.713 85.504 207.745 84.628 206.425 82.876ZM208.477 70.924C207.613 72.22 207.181 73.912 207.181 76C207.181 78.088 207.613 79.792 208.477 81.112C209.341 82.408 210.637 83.056 212.365 83.056C214.093 83.056 215.389 82.408 216.253 81.112C217.141 79.792 217.585 78.088 217.585 76C217.585 73.912 217.141 72.22 216.253 70.924C215.389 69.604 214.093 68.944 212.365 68.944C210.637 68.944 209.341 69.604 208.477 70.924ZM239.185 83.776C239.185 86.656 238.345 89.008 236.665 90.832C235.009 92.68 232.933 93.604 230.437 93.604C227.965 93.604 225.733 92.908 223.741 91.516L225.109 89.392C225.685 89.872 226.453 90.268 227.413 90.58C228.373 90.892 229.345 91.048 230.329 91.048C232.105 91.048 233.569 90.364 234.721 88.996C235.873 87.628 236.449 85.876 236.449 83.74V82.048C235.105 84.352 233.221 85.504 230.797 85.504C228.733 85.504 227.041 84.724 225.721 83.164C224.401 81.604 223.741 79.36 223.741 76.432C223.741 73.48 224.569 71.092 226.225 69.268C227.905 67.42 229.981 66.496 232.453 66.496C234.949 66.496 237.193 67.192 239.185 68.584V83.776ZM226.477 76.36C226.477 78.52 226.933 80.176 227.845 81.328C228.757 82.48 229.921 83.056 231.337 83.056C232.777 83.056 233.989 82.336 234.973 80.896C235.957 79.456 236.449 77.404 236.449 74.74V69.844C235.249 69.244 233.965 68.944 232.597 68.944C230.821 68.944 229.357 69.64 228.205 71.032C227.053 72.4 226.477 74.176 226.477 76.36Z" fill="white"/>
</g>
<defs>
<filter id="filter0_d" x="0" y="0" width="265" height="111" filterUnits="userSpaceOnUse" color-interpolation-filters="sRGB">
<feFlood flood-opacity="0" result="BackgroundImageFix"/>
<feColorMatrix in="SourceAlpha" type="matrix" values="0 0 0 0 0 0 0 0 0 0 0 0 0 0 0 0 0 0 127 0" result="hardAlpha"/>
<feOffset dy="4"/>
<feGaussianBlur stdDeviation="2"/>
<feComposite in2="hardAlpha" operator="out"/>
<feColorMatrix type="matrix" values="0 0 0 0 0 0 0 0 0 0 0 0 0 0 0 0 0 0 0.25 0"/>
<feBlend mode="normal" in2="BackgroundImageFix" result="effect1_dropShadow"/>
<feBlend mode="normal" in="SourceGraphic" in2="effect1_dropShadow" result="shape"/>
</filter>
<filter id="filter1_d" x="22.8" y="17.944" width="220.385" height="83.66" filterUnits="userSpaceOnUse" color-interpolation-filters="sRGB">
<feFlood flood-opacity="0" result="BackgroundImageFix"/>
<feColorMatrix in="SourceAlpha" type="matrix" values="0 0 0 0 0 0 0 0 0 0 0 0 0 0 0 0 0 0 127 0" result="hardAlpha"/>
<feOffset dy="4"/>
<feGaussianBlur stdDeviation="2"/>
<feComposite in2="hardAlpha" operator="out"/>
<feColorMatrix type="matrix" values="0 0 0 0 0 0 0 0 0 0 0 0 0 0 0 0 0 0 0.25 0"/>
<feBlend mode="normal" in2="BackgroundImageFix" result="effect1_dropShadow"/>
<feBlend mode="normal" in="SourceGraphic" in2="effect1_dropShadow" result="shape"/>
</filter>
</defs>
</svg>
