<svg width="87" height="43" viewBox="0 0 87 43" fill="none" xmlns="http://www.w3.org/2000/svg">
<path d="M81.0261 0H5.97386C2.67459 0 0 2.684 0 5.99488V37.0051C0 40.316 2.67459 43 5.97386 43H81.0261C84.3254 43 87 40.316 87 37.0051V5.99488C87 2.684 84.3254 0 81.0261 0Z" fill="#44B4CC"/>
<path d="M19.0685 27.9177H18.2457C18.2457 27.6525 18.4053 26.6817 18.51 26.2614C17.8219 27.7075 17.014 28.1329 15.8721 28.1329C13.7479 28.1329 13.0198 26.6317 13.6781 23.4441L15.548 14.5368C16.2312 11.2141 17.3581 10.0632 19.3627 10.0632C22.0205 10.0632 22.3845 12.37 21.9108 14.4017L21.831 14.747H20.8986L20.9534 14.4768C21.3424 12.5102 21.108 10.9389 19.2281 10.9389C17.9216 10.9389 17.0839 11.8046 16.4805 14.6369L14.6654 23.319C14.1418 25.861 14.3762 27.2271 15.9968 27.2271C17.9914 27.2271 18.7145 25.1404 19.4475 21.6526L19.9461 19.4108H17.5127L17.7072 18.5151H21.0481L19.0685 27.9177Z" fill="white" stroke="white" stroke-miterlimit="10"/>
<path d="M29.0615 18.6201L27.9246 24.1596C27.3162 27.092 26.3937 28.1279 24.434 28.1279C22.6987 28.1279 21.5368 27.062 22.1701 24.0495L23.3819 18.2248C23.8057 16.2232 24.5288 14.4918 26.7278 14.4918C28.8172 14.5118 29.615 15.9529 29.0615 18.6201ZM24.3642 18.2248L23.0976 24.1646C22.6289 26.4615 23.4317 27.2521 24.5387 27.2521C25.6457 27.2521 26.3439 26.7517 26.8625 24.3448L28.1041 18.5601C28.5479 16.5234 28.0542 15.3675 26.6081 15.3675C25.3515 15.3675 24.7532 16.4183 24.3642 18.2248Z" fill="white" stroke="white" stroke-miterlimit="10"/>
<path d="M31.3403 18.6702C31.8938 16.053 32.0534 15.2574 32.1581 14.7019H33.0657C33.0358 14.8921 32.961 15.4125 32.8014 16.1431C33.4347 15.0722 34.2275 14.4918 35.4642 14.4918C36.7009 14.4918 37.7879 15.1673 37.2893 17.4942L35.0753 27.9027H34.1129L36.272 17.6643C36.5612 16.2932 36.4815 15.3775 35.1451 15.3775C33.8885 15.3775 32.7715 16.4534 32.1531 19.3057L30.348 27.9177H29.3856L31.3403 18.6702Z" fill="white" stroke="white" stroke-miterlimit="10"/>
<path d="M43.0936 28.0479C42.5601 30.625 42.1711 32.6216 39.4535 32.6216C37.0898 32.6216 36.7956 30.9002 37.035 29.7042V29.5691H38.0323V29.7292C37.8977 30.5149 37.9525 31.7309 39.5731 31.7309C41.1938 31.7309 41.5677 30.6149 42.0664 28.278L42.4853 26.3215C41.9866 27.2172 41.488 27.8977 40.1416 27.8977C38.0522 27.8977 37.788 25.9612 38.1869 24.1347L39.4734 18.0597C39.8923 16.2282 40.7151 14.5118 42.7097 14.5118C43.9762 14.5118 44.6295 15.3275 44.7043 16.1131C44.809 15.5627 44.9686 15.0122 45.0483 14.722H45.9758C45.8213 15.3625 45.5271 16.6536 45.163 18.39L43.0936 28.0479ZM40.4159 18.2249L39.1842 24.1447C38.865 25.6459 38.9199 27.007 40.361 27.007C42.216 27.007 42.8543 24.505 43.313 22.5534L43.9264 19.8312C44.3702 17.8295 44.6544 15.3926 42.6448 15.3926C41.2037 15.3926 40.7051 16.8287 40.4159 18.2249Z" fill="white" stroke="white" stroke-miterlimit="10"/>
<path d="M46.659 28.7684L54.7022 12.7854H49.8254L50.0149 11.9147H55.9987L55.8491 12.6002L47.8009 28.5482H53.0417L52.6927 29.4189H46.4994L46.659 28.7684Z" fill="white" stroke="white" stroke-miterlimit="10"/>
<path d="M61.3692 20.1965L60.2223 25.701C59.624 28.6083 58.7264 29.6392 56.7966 29.6392C55.0812 29.6392 53.9393 28.5783 54.5626 25.5959L55.7544 19.8112C56.1733 17.8095 56.8863 16.1081 59.0555 16.1081C61.1249 16.0981 61.9128 17.5443 61.3692 20.1965ZM56.7318 19.8012L55.4801 25.696C55.0164 27.9778 55.8142 28.7584 56.9013 28.7584C57.9884 28.7584 58.6815 28.258 59.2001 25.8761L60.4218 20.1314C60.8606 18.1298 60.3719 16.9638 58.9258 16.9638C57.7091 16.9638 57.1157 18.0147 56.7318 19.8012Z" fill="white" stroke="white" stroke-miterlimit="10"/>
<path d="M63.6132 20.2415C64.1617 17.6443 64.3163 16.8587 64.421 16.3083H65.3235C65.2936 16.4934 65.2188 17.0138 65.0642 17.7394C65.6876 16.6736 66.4655 16.0981 67.6872 16.0981C68.9089 16.0981 69.981 16.7686 69.4923 19.1005L67.3182 29.4189H66.3707L68.5049 19.2607C68.7892 17.8996 68.7044 16.9888 67.3929 16.9888C66.0815 16.9888 65.0443 18.0547 64.4509 20.892L62.6558 29.3989H61.7083L63.6132 20.2415Z" fill="white" stroke="white" stroke-miterlimit="10"/>
<path d="M71.8659 22.8536C71.7412 23.419 71.5268 24.4849 71.3673 25.2055C70.9584 27.2071 71.0332 28.7634 72.6089 28.7634C73.9253 28.7634 74.3891 27.6625 74.7481 26.0862L74.8279 25.7409H75.7953L75.6906 26.1563C75.3016 27.6875 74.8528 29.6291 72.5191 29.6291C69.9511 29.6291 70.001 27.3422 70.4697 25.0854L71.467 20.2164C71.8809 18.1698 72.5341 16.0981 74.788 16.0981C77.381 16.0981 77.3361 18.455 76.9671 20.1714C76.8425 20.7619 76.5483 22.173 76.3937 22.8536H71.8659ZM75.6656 21.9879C75.7704 21.4875 76.0047 20.4116 76.1094 19.9212C76.4435 18.3149 76.1094 16.9638 74.7132 16.9638C73.1425 16.9638 72.7186 18.8753 72.4443 20.1514L72.0554 21.9879H75.6656Z" fill="white" stroke="white" stroke-miterlimit="10"/>
</svg>
